<svg id="Capa_1" enable-background="new 0 0 502 502" height="150" viewBox="0 0 502 502" width="150" xmlns="http://www.w3.org/2000/svg" xmlns:xlink="http://www.w3.org/1999/xlink"><linearGradient id="lg1"><stop offset="0" stop-color="#5ec67a"/><stop offset=".2282" stop-color="#63c97f"/><stop offset=".5159" stop-color="#73d28f"/><stop offset=".8344" stop-color="#8de1a9"/><stop offset="1" stop-color="#9debb9"/></linearGradient><linearGradient id="SVGID_1_" gradientTransform="matrix(-1 0 0 1 502 0)" gradientUnits="userSpaceOnUse" x1="175.994" x2="175.994" xlink:href="#lg1" y1="154.863" y2="43.67"/><linearGradient id="SVGID_2_" gradientUnits="userSpaceOnUse" x1="175.994" x2="175.994" xlink:href="#lg1" y1="154.863" y2="43.67"/><linearGradient id="lg2"><stop offset="0" stop-color="#6ac65e"/><stop offset="1" stop-color="#afd986"/></linearGradient><linearGradient id="SVGID_3_" gradientUnits="userSpaceOnUse" x1="251" x2="251" xlink:href="#lg2" y1="166.834" y2="28.471"/><linearGradient id="SVGID_4_" gradientUnits="userSpaceOnUse" x1="141.687" x2="141.687" xlink:href="#lg2" y1="230.817" y2="100.266"/><linearGradient id="SVGID_5_" gradientTransform="matrix(-1 0 0 1 502 0)" gradientUnits="userSpaceOnUse" x1="141.687" x2="141.687" xlink:href="#lg2" y1="230.817" y2="100.266"/><linearGradient id="SVGID_6_" gradientUnits="userSpaceOnUse" x1="118.775" x2="383.29" y1="333.563" y2="333.563"><stop offset="0" stop-color="#f4d952"/><stop offset="1" stop-color="#f9edaf"/></linearGradient><g><path d="m323.162 173.833c19.021-56.856 52.224-104.083 73.449-128.669 5.734-6.641.334-16.831-8.381-15.813-74.725 8.73-121.203 56.084-135.201 98.82z" fill="url(#SVGID_1_)"/><path d="m178.838 173.833c-19.021-56.856-52.224-104.083-73.449-128.669-5.734-6.641-.334-16.831 8.381-15.813 74.725 8.73 121.203 56.084 135.201 98.82z" fill="url(#SVGID_2_)"/><path d="m284.846 199.747c34.119-65.963 6.352-146.265-19.044-191.138-6.496-11.478-23.109-11.478-29.605 0-25.396 44.873-53.163 125.175-19.044 191.138z" fill="url(#SVGID_3_)"/><path d="m257.119 155.431c-5.338-8.459-11.524-16.403-18.441-23.732-6.257-6.63-17.044-5.723-21.998 1.93-3.512 5.426-2.83 12.533 1.605 17.235 5.708 6.052 10.786 12.586 15.155 19.51l-20.624 20.132c1.319 3.107 2.76 6.19 4.338 9.241h26.28l25.773-25.159z" fill="#04b048"/><path d="m233.439 170.374c-31.515-49.943-99.804-79.654-176.067-53.996-9.969 3.354-9.904 17.589.107 20.813 47.271 15.221 103.832 53.567 103.916 103.51z" fill="url(#SVGID_4_)"/><path d="m268.56 170.374c31.515-49.943 99.804-79.654 176.067-53.996 9.969 3.354 9.904 17.589-.108 20.813-47.271 15.221-103.832 53.567-103.916 103.51z" fill="url(#SVGID_5_)"/><path d="m251 165.126c-79.859 0-161.063 69.642-150.523 227.752 4.706 70.602 67.391 109.122 150.523 109.122s145.817-38.52 150.523-109.123c10.54-158.109-70.664-227.751-150.523-227.751z" fill="url(#SVGID_6_)"/><g fill="#efc534"><g><path d="m236.905 264.795c-2.56 0-5.118-.976-7.071-2.929-3.905-3.905-3.905-10.237.001-14.142l28.19-28.19c3.907-3.905 10.237-3.905 14.143.001 3.905 3.905 3.905 10.237 0 14.142l-28.191 28.19c-1.954 1.951-4.513 2.928-7.072 2.928z"/><path d="m265.096 264.795c-2.56 0-5.118-.976-7.071-2.929l-28.19-28.19c-3.905-3.905-3.906-10.237-.001-14.142s10.237-3.906 14.142-.001l28.191 28.19c3.905 3.905 3.905 10.237 0 14.142-1.953 1.953-4.512 2.93-7.071 2.93z"/></g><g><path d="m236.905 455.04c-2.56 0-5.118-.976-7.071-2.929-3.905-3.905-3.905-10.237.001-14.142l28.19-28.19c3.907-3.904 10.237-3.905 14.143 0s3.905 10.237 0 14.142l-28.191 28.19c-1.954 1.953-4.513 2.929-7.072 2.929z"/><path d="m265.096 455.04c-2.56 0-5.118-.976-7.071-2.929l-28.19-28.19c-3.905-3.905-3.906-10.237-.001-14.142s10.237-3.906 14.142 0l28.191 28.19c3.905 3.905 3.905 10.237 0 14.142-1.953 1.953-4.512 2.929-7.071 2.929z"/></g><g><path d="m150.003 292.837c-2.559 0-5.119-.976-7.071-2.929-3.905-3.905-3.905-10.237 0-14.143l28.191-28.19c3.905-3.905 10.237-3.905 14.143 0 3.905 3.905 3.905 10.237 0 14.143l-28.19 28.19c-1.954 1.953-4.514 2.929-7.073 2.929z"/><path d="m178.194 292.837c-2.559 0-5.119-.976-7.071-2.929l-28.191-28.19c-3.905-3.905-3.905-10.237 0-14.143 3.905-3.905 10.237-3.905 14.143 0l28.19 28.19c3.905 3.905 3.905 10.237 0 14.143-1.953 1.953-4.512 2.929-7.071 2.929z"/></g><g><path d="m145.686 414.823c-2.559 0-5.119-.976-7.071-2.929-3.905-3.905-3.905-10.237 0-14.143l28.19-28.19c3.905-3.905 10.237-3.905 14.143 0 3.905 3.905 3.905 10.237 0 14.143l-28.19 28.19c-1.953 1.953-4.512 2.929-7.072 2.929z"/><path d="m173.877 414.823c-2.559 0-5.119-.976-7.071-2.929l-28.19-28.19c-3.905-3.905-3.905-10.237 0-14.143 3.905-3.905 10.237-3.905 14.143 0l28.19 28.19c3.905 3.905 3.905 10.237 0 14.143-1.953 1.953-4.513 2.929-7.072 2.929z"/></g><g><path d="m356.314 414.823c-2.56 0-5.118-.976-7.071-2.929l-28.19-28.19c-3.905-3.905-3.905-10.237 0-14.143 3.906-3.905 10.236-3.905 14.142 0l28.19 28.19c3.905 3.905 3.905 10.237 0 14.143-1.953 1.953-4.512 2.929-7.071 2.929z"/><path d="m328.123 414.823c-2.56 0-5.118-.976-7.071-2.929-3.905-3.905-3.905-10.237 0-14.143l28.19-28.19c3.906-3.905 10.236-3.905 14.143 0 3.905 3.905 3.905 10.237 0 14.143l-28.19 28.19c-1.954 1.953-4.512 2.929-7.072 2.929z"/></g><g><path d="m351.997 292.837c-2.56 0-5.118-.976-7.071-2.929l-28.19-28.19c-3.905-3.905-3.905-10.237 0-14.143 3.906-3.905 10.236-3.905 14.142 0l28.191 28.19c3.905 3.905 3.905 10.237 0 14.143-1.954 1.953-4.512 2.929-7.072 2.929z"/><path d="m323.807 292.837c-2.56 0-5.118-.976-7.071-2.929-3.905-3.905-3.905-10.237 0-14.143l28.19-28.19c3.906-3.905 10.236-3.905 14.143 0 3.905 3.905 3.905 10.237 0 14.143l-28.191 28.19c-1.953 1.953-4.512 2.929-7.071 2.929z"/></g></g><g><ellipse cx="163.114" cy="335.233" fill="#eaadcd" rx="14.936" ry="12.003"/><ellipse cx="338.885" cy="335.233" fill="#eaadcd" rx="14.936" ry="12.003"/><path d="m188.721 309.581c7.183 0 13.813 1.589 19.159 4.273 4.544 2.281 9.962-.801 10.365-5.87.113-1.423.125-2.875.029-4.348-.991-15.146-13.602-27.24-28.775-27.629-16.713-.428-30.396 12.992-30.396 29.608 0 .843.036 1.678.105 2.503.422 5.01 5.857 7.995 10.349 5.738 5.348-2.685 11.979-4.275 19.164-4.275z" fill="#fff"/><path d="m251 345.419c-6.447 0-12.894-2.155-18.274-6.465-4.989-3.997-5.794-11.282-1.797-16.271 3.997-4.99 11.282-5.793 16.271-1.797 2.237 1.792 5.361 1.792 7.598 0 4.988-3.997 12.273-3.193 16.271 1.797 3.997 4.989 3.193 12.274-1.797 16.271-5.378 4.31-11.825 6.465-18.272 6.465z" fill="#3b3b44"/><path d="m188.721 309.581c5.926 0 11.473 1.082 16.237 2.967.911-2.129 1.415-4.47 1.415-6.933 0-9.749-7.903-17.652-17.652-17.652s-17.652 7.903-17.652 17.652c0 2.463.504 4.803 1.415 6.933 4.764-1.885 10.312-2.967 16.237-2.967z" fill="#3b3b44"/><path d="m313.279 309.581c7.183 0 13.813 1.589 19.158 4.273 4.544 2.281 9.962-.801 10.365-5.87.113-1.423.125-2.875.029-4.348-.991-15.146-13.602-27.24-28.775-27.629-16.713-.428-30.396 12.992-30.396 29.608 0 .843.035 1.678.105 2.503.422 5.01 5.857 7.995 10.349 5.738 5.348-2.685 11.98-4.275 19.165-4.275z" fill="#fff"/><path d="m313.279 309.581c5.926 0 11.473 1.082 16.237 2.967.911-2.129 1.415-4.47 1.415-6.933 0-9.749-7.903-17.652-17.652-17.652s-17.652 7.903-17.652 17.652c0 2.463.504 4.803 1.415 6.933 4.763-1.885 10.311-2.967 16.237-2.967z" fill="#3b3b44"/></g></g></svg>
