<svg id="Capa_1" enable-background="new 0 0 512 512" height="150" viewBox="0 0 512 512" width="150" xmlns="http://www.w3.org/2000/svg"><g><g><g><path d="m367.783 408.987c-1.946 0-3.924-.278-5.884-.86-10.906-3.245-17.117-14.717-13.872-25.624 30.221-101.577 22.129-186.871-24.054-253.512-24.73-35.685-53.757-55.884-67.925-64.329-14.42 8.654-44.386 29.56-69.15 65.976-45.172 66.426-52.884 151.165-22.924 251.865 3.245 10.906-2.966 22.378-13.872 25.624-10.902 3.242-22.378-2.966-25.624-13.873-18.526-62.266-23.842-120.461-15.801-172.969 6.54-42.705 21.842-81.654 45.482-115.766 40.359-58.236 91.087-82.043 93.226-83.028 5.468-2.517 11.763-2.517 17.23 0 2.14.985 52.867 24.792 93.226 83.028 23.64 34.112 38.942 73.06 45.482 115.766 8.041 52.508 2.725 110.703-15.801 172.969-2.661 8.946-10.859 14.733-19.739 14.733z" fill="#17d9bf"/></g></g><g><path d="m403.323 221.285c-5.945-38.82-19.155-74.522-39.261-106.322 1.03 8.348-2.557 16.955-10.034 21.938-7.595 5.062-17.096 4.978-24.454.614 41.169 65.337 47.402 147.686 18.452 244.989-3.245 10.906 2.966 22.378 13.872 25.624 1.961.582 3.938.86 5.884.86 8.88 0 17.078-5.787 19.739-14.733 18.527-62.267 23.843-120.462 15.802-172.97z" fill="#0accab"/></g><g><path d="m108.677 221.285c5.945-38.82 19.155-74.522 39.261-106.322-1.03 8.348 2.557 16.955 10.034 21.938 7.595 5.062 17.096 4.978 24.454.614-41.169 65.337-47.402 147.686-18.452 244.989 3.245 10.906-2.966 22.378-13.872 25.624-1.961.582-3.938.86-5.884.86-8.88 0-17.078-5.787-19.739-14.733-18.527-62.267-23.843-120.462-15.802-172.97z" fill="#0accab"/></g><g><path d="m70.567 20.604c0-11.379 9.225-20.604 20.604-20.604h329.658c11.379 0 20.604 9.225 20.604 20.604 0 11.379-9.225 20.604-20.604 20.604h-329.658c-11.379-.001-20.604-9.225-20.604-20.604z" fill="#50e3cf"/></g><g><path d="m176.287 20.604c0-11.379 9.225-20.604 20.604-20.604h-105.72c-11.379 0-20.604 9.225-20.604 20.604 0 11.379 9.225 20.604 20.604 20.604h105.72c-11.379-.001-20.604-9.225-20.604-20.604z" fill="#17d9bf"/></g><g><circle cx="357.473" cy="367.775" fill="#fd5c70" r="144.225"/></g><g><path d="m454.31 388.378c-79.653 0-144.225-64.572-144.225-144.225 0-4.325.202-8.602.574-12.83-56.673 19.439-97.411 73.185-97.411 136.451 0 79.653 64.572 144.225 144.225 144.225 75.329 0 137.158-57.754 143.651-131.396-14.68 5.037-30.427 7.775-46.814 7.775z" fill="#f24c68"/></g><g><g><g><ellipse cx="443.85" cy="376.579" fill="#fff" rx="31.872" ry="25.381"/></g><g><ellipse cx="357.473" cy="357.078" fill="#423e4f" rx="16.918" ry="18.932"/></g></g><g><path d="m438.522 353.451c-4.143 0-7.5-3.357-7.5-7.5v-12.362c0-4.143 3.357-7.5 7.5-7.5s7.5 3.357 7.5 7.5v12.362c0 4.143-3.357 7.5-7.5 7.5z" fill="#423e4f"/></g></g><g><circle cx="154.527" cy="367.775" fill="#ff7591" r="144.225"/></g><g><path d="m251.364 388.378c-79.653 0-144.225-64.572-144.225-144.225 0-4.325.202-8.602.574-12.83-56.673 19.439-97.411 73.185-97.411 136.451 0 79.654 64.572 144.226 144.225 144.226 75.329 0 137.158-57.754 143.651-131.396-14.68 5.036-30.426 7.774-46.814 7.774z" fill="#fd5c70"/></g><g><g><g><ellipse cx="72.479" cy="376.293" fill="#fff" rx="30.274" ry="24.109"/></g><g><ellipse cx="236.576" cy="376.293" fill="#fff" rx="30.274" ry="24.109"/></g><g><path d="m178.936 357.769c0-15.085-10.928-16.502-24.409-16.502-13.48 0-24.409 1.417-24.409 16.502s10.928 27.313 24.409 27.313 24.409-12.228 24.409-27.313z" fill="#423e4f"/></g></g><g><path d="m77.54 355.01c-4.142 0-7.5-3.357-7.5-7.5v-12.362c0-4.143 3.358-7.5 7.5-7.5s7.5 3.357 7.5 7.5v12.362c0 4.142-3.358 7.5-7.5 7.5z" fill="#423e4f"/></g><g><path d="m231.515 355.01c-4.142 0-7.5-3.357-7.5-7.5v-12.362c0-4.143 3.358-7.5 7.5-7.5s7.5 3.357 7.5 7.5v12.362c0 4.142-3.358 7.5-7.5 7.5z" fill="#423e4f"/></g></g></g></svg>
