<svg id="login-logo" enable-background="new 0 0 512 512" height="35" viewBox="0 0 512 512" width="35" xmlns="http://www.w3.org/2000/svg"><path d="m242.581 476.456c8.575 3.692 18.262 3.692 26.837 0 83.847-36.099 230.745-146.125 230.745-265.997 0-74.949-63.402-135.923-138.313-138.315-41.36-1.321-78.94 14.92-105.85 41.83-26.91-26.91-64.49-43.15-105.85-41.83-74.911 2.392-138.313 63.367-138.313 138.315 0 119.873 146.898 229.898 230.744 265.997z" fill="#e8899e"/><path d="m136.095 73.291c-68.618 9.012-124.258 66.958-124.258 137.168 0 119.872 146.898 229.898 230.745 265.997 8.575 3.692 18.262 3.692 26.837 0 9.283-3.997 19.341-8.903 29.884-14.625-136.214-60.046-193.817-281.186-163.208-388.54z" fill="#e26e7e"/><path d="m0 210.459v.151c.008 8.226 6.772 14.85 14.998 14.85h482.003c8.226 0 14.99-6.625 14.998-14.85 0-.051 0-.101 0-.151 0-16.402-2.816-32.267-8-47.152-2.104-6.042-7.787-10.104-14.186-10.104h-467.627c-6.398 0-12.081 4.062-14.186 10.104-5.184 14.885-8 30.75-8 47.152z" fill="#8eafe2"/><path d="m176.163 153.203h-153.977c-6.398 0-12.081 4.062-14.186 10.104-5.184 14.885-8 30.75-8 47.152v.151c.008 8.226 6.772 14.85 14.998 14.85h165.901c-10.82-17.356-14.048-49.171-4.736-72.257z" fill="#6a96d7"/><path d="m22.186 153.203c-6.398 0-12.081 4.062-14.186 10.104-2.921 8.387-5.059 17.094-6.397 26.025h508.794c-1.337-8.93-3.476-17.637-6.397-26.025-2.104-6.042-7.788-10.104-14.186-10.104z" fill="#fcf2d0"/><path d="m176.163 153.203h-153.977c-6.398 0-12.081 4.062-14.186 10.104-2.921 8.387-5.059 17.094-6.397 26.025h169.237c-.678-12.362.923-25.22 5.323-36.129z" fill="#f6e3a3"/><ellipse cx="146.12" cy="336.736" fill="#fff" rx="40.544" ry="32.287"/><ellipse cx="365.88" cy="336.736" fill="#fff" rx="40.544" ry="32.287"/><g fill="#4e5660"><ellipse cx="256" cy="311.929" rx="21.522" ry="24.083"/><path d="m192.638 305.019c-4.142 0-7.5-3.358-7.5-7.5 0-5.811-4.728-10.538-10.539-10.538s-10.539 4.727-10.539 10.538c0 4.142-3.358 7.5-7.5 7.5s-7.5-3.358-7.5-7.5c0-14.082 11.457-25.538 25.539-25.538 14.083 0 25.539 11.456 25.539 25.538 0 4.143-3.358 7.5-7.5 7.5z"/><path d="m353.886 305.019c-4.142 0-7.5-3.358-7.5-7.5 0-5.811-4.728-10.538-10.539-10.538s-10.539 4.727-10.539 10.538c0 4.142-3.358 7.5-7.5 7.5s-7.5-3.358-7.5-7.5c0-14.082 11.457-25.538 25.539-25.538s25.539 11.456 25.539 25.538c0 4.143-3.358 7.5-7.5 7.5z"/></g><path d="m46.838 32.776c44.475.473 64.156 30.033 70.577 60.051 1.55 7.245-6.013 13.014-12.588 9.599-17.777-9.233-40.694-1.826-59.076-1.826-18.746 0-33.939-15.209-33.915-33.961.026-18.822 16.181-34.063 35.002-33.863z" fill="#a3defe"/><path d="m465.162 32.776c-44.475.473-64.156 30.033-70.577 60.051-1.55 7.245 6.013 13.014 12.588 9.599 17.777-9.234 40.694-1.827 59.075-1.827 18.746 0 33.939-15.209 33.915-33.961-.025-18.821-16.18-34.062-35.001-33.862z" fill="#a3defe"/><path d="m500.161 353.901c-.473-44.475-30.033-64.156-60.052-70.577-7.245-1.55-13.014 6.013-9.599 12.588 9.234 17.777 1.827 40.694 1.827 59.075 0 18.746 15.209 33.939 33.961 33.915 18.822-.025 34.063-16.18 33.863-35.001z" fill="#a3defe"/></svg>
