<svg id="Capa_1" enable-background="new 0 0 512 512" height="150" viewBox="0 0 512 512" width="150" xmlns="http://www.w3.org/2000/svg"><g><path d="m357.157 50.257c-50.68 165.425-122.224 227.185-205.627 260.467-15.656 6.25-27.836 20.186-31.053 37.997-4.963 27.482 13.292 53.783 40.773 58.746 113.944 20.578 258.172-70.177 293.083-227.178 8.975-40.796 10.335-83.756 1.819-124.988-3.666-17.536-16.449-32.71-34.751-38.482-26.973-8.506-55.736 6.464-64.244 33.438z" fill="#f6ee86"/><path d="m435.449 238.094c-8.027-1.521-16.304-2.326-24.766-2.326-11.75 0-23.297 1.523-34.422 4.5-6.524-18.658-17.113-35.811-31.305-50.325-10.139-10.37-21.627-18.876-34.06-25.364-44.587 82.844-98.854 121.997-159.365 146.145-15.656 6.251-27.836 20.186-31.053 37.998-4.963 27.482 13.292 53.783 40.773 58.746 99.119 17.901 221.141-48.458 274.198-169.374z" fill="#f2d98d"/><path d="m274.785 319.241c-2.836 0-5.548-1.615-6.814-4.359-1.736-3.761-.094-8.217 3.666-9.952 43.168-19.924 98.756-109.488 107.783-145.029 1.019-4.015 5.101-6.441 9.115-5.424 4.015 1.02 6.443 5.101 5.423 9.115-5.033 19.817-22.494 53.322-43.449 83.373-14.625 20.973-43.503 58.161-72.586 71.584-1.018.47-2.087.692-3.138.692z" fill="#f2d98d"/><path d="m357.157 50.257c-3.42 11.162-6.937 21.837-10.544 32.078l114.512 9.517c-.857-12.266-2.48-24.483-4.972-36.55-3.666-17.536-16.449-32.71-34.751-38.482-26.974-8.507-55.737 6.463-64.245 33.437z" fill="#cb9d82"/><path d="m140.601 70.302c27.235 27.235 34.223 68.336 35.593 95.711.818 16.342-12.618 29.779-28.961 28.961-27.376-1.37-68.476-8.358-95.711-35.593-27.236-27.235-34.223-68.336-35.593-95.711-.818-16.343 12.618-29.779 28.961-28.961 27.375 1.37 68.476 8.358 95.711 35.593z" fill="#a0e7e7"/><path d="m120.181 140.917c-1.92 0-3.839-.732-5.303-2.196l-37.151-37.151c-2.929-2.93-2.929-7.678 0-10.607 2.929-2.928 7.678-2.928 10.606 0l37.151 37.151c2.929 2.93 2.929 7.678 0 10.607-1.464 1.464-3.384 2.196-5.303 2.196z" fill="#8ed2e2"/><path d="m176.229 240.33c-15.824 0-28.652-12.828-28.652-28.652 0-47.158 22.881-98.505 42.475-128.145 8.726-13.201 26.502-16.829 39.701-8.102 13.2 8.727 16.828 26.501 8.102 39.703-15.882 24.024-32.974 64.483-32.974 96.545 0 15.823-12.827 28.651-28.652 28.651z" fill="#cb9d82"/><path d="m.027 287.925c2.062 91.365 75.479 209.64 134.955 209.64 16.661 0 26.576-6.888 33.052-13.684 4.471-4.692 11.918-4.692 16.39 0 6.476 6.796 16.392 13.684 33.053 13.684 59.476 0 132.893-118.276 134.955-209.641 1.314-58.24-45.103-107.118-103.357-106.88-19.1.078-36.972 5.358-52.275 14.496-12.673 7.567-28.468 7.567-41.141 0-15.303-9.138-33.175-14.418-52.275-14.496-58.255-.237-104.671 48.641-103.357 106.881z" fill="#eda1ab"/><path d="m134.982 497.566c16.661 0 26.576-6.887 33.052-13.684 1.28-1.344 2.808-2.289 4.437-2.863-93.46-53.309-125.336-239.484-82.239-299.181-51.928 6.509-91.419 52.304-90.205 106.087 2.062 91.365 75.479 209.641 134.955 209.641z" fill="#e8899e"/><g><g fill="#fff"><ellipse cx="94.272" cy="327.427" rx="30.241" ry="24.082"/><ellipse cx="258.187" cy="327.427" rx="30.241" ry="24.082"/></g><g fill="#4e5660"><path d="m111.896 311.744c-4.142 0-7.5-3.357-7.5-7.5v-12.362c0-4.142 3.358-7.5 7.5-7.5s7.5 3.358 7.5 7.5v12.362c0 4.143-3.358 7.5-7.5 7.5z"/><path d="m240.563 311.744c-4.142 0-7.5-3.357-7.5-7.5v-12.362c0-4.142 3.358-7.5 7.5-7.5s7.5 3.358 7.5 7.5v12.362c0 4.143-3.358 7.5-7.5 7.5z"/><path d="m176.23 319.104c-8.669 0-16.911-3.754-22.616-10.3-2.721-3.123-2.396-7.86.727-10.582s7.861-2.395 10.582.727c2.855 3.276 6.976 5.155 11.307 5.155s8.452-1.879 11.307-5.155c2.721-3.123 7.459-3.448 10.582-.727 3.123 2.722 3.448 7.459.727 10.582-5.706 6.546-13.948 10.3-22.616 10.3z"/></g></g><ellipse cx="410.683" cy="368.527" fill="#e8899e" rx="101.317" ry="101.317" transform="matrix(.707 -.707 .707 .707 -140.302 398.335)"/><path d="m430.692 343.21v-29.405c0-2.931-2.376-5.307-5.307-5.307h-29.404c-2.931 0-5.307 2.376-5.307 5.307v29.405c0 2.931-2.376 5.307-5.307 5.307h-29.404c-2.931 0-5.307 2.376-5.307 5.307v29.404c0 2.931 2.376 5.307 5.307 5.307h29.404c2.931 0 5.307 2.376 5.307 5.307v29.405c0 2.931 2.376 5.307 5.307 5.307h29.404c2.931 0 5.307-2.376 5.307-5.307v-29.405c0-2.931 2.376-5.307 5.307-5.307h29.404c2.931 0 5.307-2.376 5.307-5.307v-29.404c0-2.931-2.376-5.307-5.307-5.307h-29.403c-2.931 0-5.308-2.376-5.308-5.307z" fill="#fff"/></g></svg>
