<svg height="150px" viewBox="0 0 512.001 512" width="150px" xmlns="http://www.w3.org/2000/svg"><path d="m308.195312 113.78125c23.609376-23.609375 31.488282-57.816406 33.914063-82.640625 1.742187-17.804687-13.195313-32.742187-31-31-24.828125 2.425781-59.03125 10.300781-82.640625 33.914063-23.613281 23.609374-31.488281 57.816406-33.914062 82.640624-1.742188 17.804688 13.195312 32.742188 31 31 24.824218-2.425781 59.03125-10.304687 82.640624-33.914062zm0 0" fill="#7bd0a7"/><path d="m308.195312 113.78125c23.609376-23.609375 31.488282-57.816406 33.914063-82.640625 1.742187-17.804687-13.195313-32.742187-31-31-24.828125 2.425781-59.03125 10.300781-82.640625 33.914063-23.613281 23.609374-31.488281 57.816406-33.914062 82.640624-1.742188 17.804688 13.195312 32.742188 31 31 24.824218-2.425781 59.03125-10.304687 82.640624-33.914062zm0 0" fill="#7bd0a7"/><path d="m275.914062 135.277344c-46.628906-4.515625-62.128906-59.519532-53.726562-94.261719-18.769531 23.03125-25.433594 53.199219-27.632812 75.679687-1.742188 17.804688 13.195312 32.742188 31 31 14.851562-1.453124 33.066406-4.859374 50.359374-12.417968zm0 0" fill="#68bf97"/><path d="m243.050781 106.695312c-1.917969 0-3.839843-.730468-5.304687-2.195312-2.925782-2.929688-2.925782-7.675781 0-10.605469l50.5625-50.5625c2.929687-2.925781 7.675781-2.925781 10.605468 0 2.929688 2.929688 2.929688 7.679688 0 10.609375l-50.558593 50.558594c-1.464844 1.464844-3.382813 2.195312-5.304688 2.195312zm0 0" fill="#68bf97"/><path d="m189.980469 210.464844c-11.761719 0-21.296875-9.535156-21.296875-21.300782v-53c0-34.382812-27.972656-62.355468-62.359375-62.355468-11.761719 0-21.296875-9.535156-21.296875-21.296875 0-11.765625 9.535156-21.296875 21.296875-21.296875 57.871093 0 104.949219 47.078125 104.949219 104.949218v53c0 11.765626-9.535157 21.300782-21.292969 21.300782zm0 0" fill="#f7c67b"/><path d="m189.980469 131.105469c-1.53125 0-3.820313-.355469-6.042969-2.050781-5.757812-4.394532-11.816406-8.238282-18.109375-11.546876 1.851563 5.894532 2.855469 12.160157 2.855469 18.65625v53c0 11.765626 9.535156 21.300782 21.296875 21.300782s21.296875-9.535156 21.296875-21.300782v-53c0-5.570312-.441406-11.039062-1.28125-16.378906-4.816406 2.765625-9.488282 5.847656-13.976563 9.269532-2.222656 1.695312-4.511719 2.050781-6.039062 2.050781zm0 0" fill="#ebb460"/><path d="m0 230.09375c0 79.839844 43.566406 231.886719 130.179688 244.671875 17.957031 2.648437 33.511718.464844 44.566406-4.21875 9.777344-4.144531 20.6875-4.144531 30.464844 0 11.054687 4.683594 26.613281 6.867187 44.566406 4.21875 86.613281-12.78125 130.179687-164.832031 130.179687-244.671875 0-59.09375-47.90625-107-107-107-24.367187 0-46.824219 8.148438-64.808593 21.863281-10.75 8.199219-25.589844 8.199219-36.335938 0-17.988281-13.714843-40.445312-21.863281-64.808594-21.863281-59.097656 0-107.003906 47.90625-107.003906 107zm0 0" fill="#eb8d9a"/><path d="m205.210938 470.546875c11.054687 4.683594 26.613281 6.867187 44.566406 4.21875 3.320312-.492187 6.5625-1.207031 9.753906-2.09375-137.234375-36.882813-179.84375-278.429687-151.535156-349.558594-.332032-.003906-.660156-.019531-.992188-.019531-59.097656 0-107.003906 47.90625-107.003906 107 0 79.839844 43.566406 231.886719 130.179688 244.671875 17.957031 2.648437 33.511718.464844 44.566406-4.21875 9.777344-4.144531 20.6875-4.144531 30.464844 0zm0 0" fill="#d67c88"/><path d="m133.382812 257.816406c0-14.554687-14.820312-26.355468-33.097656-26.355468s-33.09375 11.800781-33.09375 26.355468c0 14.554688 14.816406 26.355469 33.09375 26.355469s33.097656-11.800781 33.097656-26.355469zm0 0" fill="#fff"/><path d="m312.765625 257.816406c0-14.554687-14.816406-26.355468-33.09375-26.355468s-33.097656 11.800781-33.097656 26.355468c0 14.554688 14.820312 26.355469 33.097656 26.355469s33.09375-11.800781 33.09375-26.355469zm0 0" fill="#fff"/><g fill="#495059"><path d="m135.328125 236.636719c-4.144531 0-7.5-3.355469-7.5-7.5 0-4.550781-3.703125-8.25-8.253906-8.25s-8.25 3.699219-8.25 8.25c0 4.144531-3.359375 7.5-7.5 7.5-4.144531 0-7.5-3.355469-7.5-7.5 0-12.820313 10.429687-23.25 23.25-23.25 12.820312 0 23.253906 10.429687 23.253906 23.25 0 4.144531-3.359375 7.5-7.5 7.5zm0 0"/><path d="m276.136719 236.636719c-4.144531 0-7.5-3.355469-7.5-7.5 0-4.550781-3.703125-8.25-8.253907-8.25-4.550781 0-8.25 3.699219-8.25 8.25 0 4.144531-3.359374 7.5-7.5 7.5-4.144531 0-7.5-3.355469-7.5-7.5 0-12.820313 10.429688-23.25 23.25-23.25 12.820313 0 23.253907 10.429687 23.253907 23.25 0 4.144531-3.359375 7.5-7.5 7.5zm0 0"/><path d="m189.980469 262.660156c-8.574219 0-16.722657-3.710937-22.363281-10.183594-2.722657-3.121093-2.398438-7.859374.726562-10.582031 3.121094-2.722656 7.859375-2.398437 10.582031.726563 2.789063 3.203125 6.820313 5.039062 11.054688 5.039062s8.261719-1.835937 11.054687-5.039062c2.722656-3.125 7.460938-3.445313 10.582032-.726563 3.121093 2.722657 3.445312 7.460938.726562 10.582031-5.644531 6.472657-13.792969 10.183594-22.363281 10.183594zm0 0"/></g><path d="m217.203125 373.535156 156.328125-156.328125 38.316406 38.316407-156.328125 156.328124zm0 0" fill="#f0f0ef"/><path d="m351.257812 239.480469 22.273438-22.273438 38.316406 38.316407-22.273437 22.273437zm0 0" fill="#e3e2e1"/><path d="m217.203125 373.535156 22.273437-22.277344 38.316407 38.320313-22.273438 22.273437zm0 0" fill="#e3e2e1"/><path d="m126.652344 338.742188 15.167968-15.171876c7.019532-7.019531 18.402344-7.019531 25.421876 0l138.242187 138.246094c7.023437 7.019532 7.023437 18.402344 0 25.421875l-15.167969 15.167969c-7.019531 7.019531-18.402344 7.019531-25.421875 0l-138.242187-138.242188c-7.019532-7.019531-7.019532-18.402343 0-25.421874zm0 0" fill="#495059"/><path d="m149.015625 386.527344-26.691406 26.691406c-7.019531 7.019531-7.019531 18.402344 0 25.421875l68.09375 68.09375c7.019531 7.023437 18.402343 7.023437 25.421875 0l26.691406-26.6875zm0 0" fill="#41464f"/><path d="m338.742188 126.652344-15.171876 15.167968c-7.019531 7.019532-7.019531 18.402344 0 25.421876l138.246094 138.242187c7.019532 7.023437 18.402344 7.023437 25.421875 0l15.167969-15.167969c7.019531-7.019531 7.019531-18.402344 0-25.421875l-138.242188-138.242187c-7.019531-7.019532-18.402343-7.019532-25.421874 0zm0 0" fill="#495059"/><path d="m386.527344 149.015625 26.691406-26.691406c7.019531-7.019531 18.402344-7.019531 25.421875 0l68.09375 68.09375c7.023437 7.019531 7.023437 18.402343 0 25.421875l-26.6875 26.691406zm0 0" fill="#41464f"/></svg>
